<svg xmlns="http://www.w3.org/2000/svg" xmlns:xlink="http://www.w3.org/1999/xlink" version="1.1" x="0px" y="0px" viewBox="0 0 100 125" enable-background="new 0 0 100 100" xml:space="preserve"><path d="M26.385,30.545l-8.799,10.266l8.799,10.266h47.229l8.799-10.266l-8.799-10.266h-8.837v8.172c0,2.477-2.014,4.49-4.49,4.49  s-4.49-2.014-4.49-4.49v-8.172H44.203v8.172c0,2.477-2.015,4.49-4.491,4.49s-4.491-2.014-4.491-4.49v-8.172H26.385z"/><path d="M62.854,23.285c0-7.088-5.767-12.854-12.854-12.854c-7.088,0-12.854,5.766-12.854,12.854v15.432  c0,1.418,1.148,2.566,2.566,2.566c1.417,0,2.565-1.148,2.565-2.566V23.285c0-4.258,3.465-7.721,7.723-7.721s7.722,3.463,7.722,7.721  v15.432c0,1.418,1.148,2.566,2.565,2.566c1.418,0,2.566-1.148,2.566-2.566V23.285z"/><polygon points="95,72.043 83.372,42.648 75.112,52.285 84.09,88.203 "/><polygon points="73.306,53 26.693,53 17.552,89.568 82.447,89.568 "/><polygon points="15.908,88.203 24.887,52.285 16.627,42.648 5,72.043 "/><text x="0" y="115" fill="#000000" font-size="5px" font-weight="bold" font-family="'Helvetica Neue', Helvetica, Arial-Unicode, Arial, Sans-serif">Created by Kris Brauer</text><text x="0" y="120" fill="#000000" font-size="5px" font-weight="bold" font-family="'Helvetica Neue', Helvetica, Arial-Unicode, Arial, Sans-serif">from the Noun Project</text></svg>